<svg width="15" height="8" viewBox="0 0 15 8" xmlns="http://www.w3.org/2000/svg"><title>airplane_icon</title><path d="M14.623.497c-.82-.561-1.691-.63-2.545-.215L9.244 1.614l-.084.05L7.406.747A4.38 4.38 0 0 0 4.968 0h-.001l-1.48.042a.499.499 0 0 0-.285.9l3.113 2.334-2.45 1.273c-.303-.029-1.179-.243-1.615-.35-.564-.137-.651-.157-.75-.157h-1a.5.5 0 0 0-.316.887c.447.365 2.741 2.186 4.005 2.186.215 0 .405-.048.538-.127l9.907-5.037A.877.877 0 0 0 15 1.223a.882.882 0 0 0-.377-.726z" fill="#B8C5CC" fill-rule="evenodd"/></svg>