<svg width="54" height="26" viewBox="0 0 54 26" xmlns="http://www.w3.org/2000/svg"><title>Price</title><defs><linearGradient x1="0%" y1="0%" y2="158.428%" id="a"><stop stop-color="#40C8F7" offset="0%"/><stop stop-color="#46ADF0" offset="100%"/></linearGradient></defs><g fill="none" fill-rule="evenodd"><rect stroke-opacity=".4" stroke="#159DCC" x=".5" y=".5" width="53" height="25" rx="3"/><path d="M3.752 12.4v-1.26c-1.456-.112-2.534-.658-3.262-1.456l.91-1.26A4.029 4.029 0 0 0 3.752 9.67V6.968C2.31 6.604.784 6.086.784 4.252c0-1.428 1.162-2.548 2.968-2.702V.248h1.12v1.316c1.134.126 2.086.56 2.814 1.26l-.938 1.218a3.75 3.75 0 0 0-1.876-.98V5.47c1.456.392 3.024.938 3.024 2.814 0 1.428-.924 2.674-3.024 2.856v1.26h-1.12zM6.23 8.438c0-.63-.588-.938-1.358-1.176v2.422C5.838 9.53 6.23 8.97 6.23 8.438zM2.464 4.14c0 .546.546.826 1.288 1.036V2.992c-.798.084-1.288.532-1.288 1.148zM13.262 12.4v-1.26c-1.456-.112-2.534-.658-3.262-1.456l.91-1.26a4.029 4.029 0 0 0 2.352 1.246V6.968c-1.442-.364-2.968-.882-2.968-2.716 0-1.428 1.162-2.548 2.968-2.702V.248h1.12v1.316c1.134.126 2.086.56 2.814 1.26l-.938 1.218a3.75 3.75 0 0 0-1.876-.98V5.47c1.456.392 3.024.938 3.024 2.814 0 1.428-.924 2.674-3.024 2.856v1.26h-1.12zm2.478-3.962c0-.63-.588-.938-1.358-1.176v2.422c.966-.154 1.358-.714 1.358-1.246zM11.974 4.14c0 .546.546.826 1.288 1.036V2.992c-.798.084-1.288.532-1.288 1.148z" fill="url(#a)" transform="translate(8 7)"/><path d="M31.262 19.4v-1.26c-1.456-.112-2.534-.658-3.262-1.456l.91-1.26a4.029 4.029 0 0 0 2.352 1.246v-2.702c-1.442-.364-2.968-.882-2.968-2.716 0-1.428 1.162-2.548 2.968-2.702V7.248h1.12v1.316c1.134.126 2.086.56 2.814 1.26l-.938 1.218a3.75 3.75 0 0 0-1.876-.98v2.408c1.456.392 3.024.938 3.024 2.814 0 1.428-.924 2.674-3.024 2.856v1.26h-1.12zm2.478-3.962c0-.63-.588-.938-1.358-1.176v2.422c.966-.154 1.358-.714 1.358-1.246zm-3.766-4.298c0 .546.546.826 1.288 1.036V9.992c-.798.084-1.288.532-1.288 1.148z" fill="#E7EEF2"/><path d="M41.262 19.4v-1.26c-1.456-.112-2.534-.658-3.262-1.456l.91-1.26a4.029 4.029 0 0 0 2.352 1.246v-2.702c-1.442-.364-2.968-.882-2.968-2.716 0-1.428 1.162-2.548 2.968-2.702V7.248h1.12v1.316c1.134.126 2.086.56 2.814 1.26l-.938 1.218a3.75 3.75 0 0 0-1.876-.98v2.408c1.456.392 3.024.938 3.024 2.814 0 1.428-.924 2.674-3.024 2.856v1.26h-1.12zm2.478-3.962c0-.63-.588-.938-1.358-1.176v2.422c.966-.154 1.358-.714 1.358-1.246zm-3.766-4.298c0 .546.546.826 1.288 1.036V9.992c-.798.084-1.288.532-1.288 1.148z" fill="#CFDEE6" opacity=".5"/></g></svg>