<svg width="14" height="16" viewBox="0 0 14 16" xmlns="http://www.w3.org/2000/svg"><title>icon_quality</title><defs><linearGradient x1="0%" y1="0%" y2="158.428%" id="a"><stop stop-color="#40C8F7" offset="0%"/><stop stop-color="#46ADF0" offset="100%"/></linearGradient></defs><g fill="none" fill-rule="evenodd"><path d="M-1 0h16v16H-1z"/><path d="M14.954 13.085c.18.43-.198.89-.594.727l-1.975-.806-.149.078-.719 2.212c-.144.446-.7.474-.879.043l-1.403-3.37c1.673-.326 3.118-1.4 4.043-2.91l1.676 4.026zM8 0a5.36 5.36 0 0 1 5.353 5.353A5.36 5.36 0 0 1 8 10.706a5.36 5.36 0 0 1-5.353-5.353A5.36 5.36 0 0 1 8 0zm2.605 4.96a.487.487 0 0 0-.27-.83l-1.312-.191-.587-1.189a.487.487 0 0 0-.872 0L6.977 3.94l-1.312.19a.487.487 0 0 0-.27.83l.95.926-.225 1.307c-.068.397.35.7.707.513L8 7.088l1.174.617a.487.487 0 0 0 .706-.513l-.225-1.307.95-.925zM2.722 9.059c.925 1.51 2.37 2.584 4.043 2.91l-1.403 3.37c-.18.432-.735.402-.88-.043l-.718-2.213-.148-.077-1.976.806c-.394.162-.774-.296-.594-.727l1.676-4.026z" fill="url(#a)" fill-rule="nonzero" transform="translate(-1)"/></g></svg>