<?xml version="1.0" encoding="UTF-8"?>
<svg width="32px" height="325px" viewBox="0 0 32 325" version="1.1" xmlns="http://www.w3.org/2000/svg" xmlns:xlink="http://www.w3.org/1999/xlink">
    <!-- Generator: Sketch 46.2 (44496) - http://www.bohemiancoding.com/sketch -->
    <title>Left Side</title>
    <desc>Created with Sketch.</desc>
    <defs></defs>
    <g id="Index" stroke="none" stroke-width="1" fill="none" fill-rule="evenodd">
        <g id="1020_Airport_Dining_Scorecard" transform="translate(-58.000000, -705.000000)">
            <g id="Subheader" transform="translate(58.000000, 705.000000)">
                <g id="Left-Side">
                    <rect id="Rectangle-8" fill="#B8C5CC" x="14" y="0" width="2" height="325"></rect>
                    <g id="icon_intro" transform="translate(0.000000, 147.000000)">
                        <rect id="Rectangle-9" fill="#FFFFFF" x="0" y="0" width="32" height="32"></rect>
                        <path d="M16.1913183,22.1254019 C17.0353698,21.8842444 17.8311897,21.5466238 18.6028939,21.1125402 C19.3504823,20.6543408 20.0016077,20.14791 20.5562701,19.5932476 C21.1109325,19.0385852 21.5450161,18.4115756 21.8585209,17.7604502 C22.1720257,17.085209 22.340836,16.4099678 22.340836,15.7347267 C22.340836,15.3247588 22.2684887,14.9630225 22.0996785,14.6495177 C21.9308682,14.3360129 21.7379421,14.1913183 21.4967846,14.1913183 C21.255627,14.1913183 21.062701,14.2395498 20.8938907,14.3360129 C20.7250804,14.4324759 20.5562701,14.5289389 20.3874598,14.6495177 C20.2186495,14.7700965 20.0257235,14.8665595 19.8086817,14.9630225 C19.5916399,15.0594855 19.3022508,15.107717 18.9405145,15.107717 C18.192926,15.107717 17.5418006,14.818328 17.011254,14.2154341 C16.4565916,13.6125402 16.1913183,12.840836 16.1913183,11.9244373 C16.1913183,10.9598071 16.5530547,10.1398714 17.3006431,9.48874598 C18.0482315,8.83762058 18.9405145,8.5 20.0257235,8.5 C20.7250804,8.5 21.3762058,8.64469453 21.9549839,8.95819936 C22.5578778,9.27170418 23.0884244,9.68167203 23.5466238,10.2363344 C24.0048232,10.766881 24.3665595,11.3938907 24.6318328,12.0932476 C24.8971061,12.7926045 25.0176849,13.5643087 25.0176849,14.3842444 C25.0176849,15.6623794 24.7765273,16.8440514 24.318328,17.9292605 C23.8360129,19.0144695 23.2090032,19.9549839 22.3890675,20.7508039 C21.5932476,21.5466238 20.6527331,22.1977492 19.5675241,22.6800643 C18.4823151,23.1623794 17.3729904,23.4276527 16.1913183,23.5 L16.1913183,22.1254019 L16.1913183,22.1254019 Z M5.00160772,22.1254019 C5.84565916,21.8842444 6.6414791,21.5466238 7.41318328,21.1125402 C8.1607717,20.6543408 8.81189711,20.14791 9.36655949,19.5932476 C9.92122186,19.0385852 10.3553055,18.4115756 10.6688103,17.7604502 C10.9823151,17.085209 11.1511254,16.4099678 11.1511254,15.7347267 C11.1511254,15.3247588 11.0787781,14.9630225 10.9099678,14.6495177 C10.7411576,14.3360129 10.5482315,14.1913183 10.307074,14.1913183 C10.0659164,14.1913183 9.87299035,14.2395498 9.70418006,14.3360129 C9.53536977,14.4324759 9.36655949,14.5289389 9.1977492,14.6495177 C9.02893891,14.7700965 8.83601286,14.8665595 8.61897106,14.9630225 C8.40192926,15.0594855 8.11254019,15.107717 7.75080386,15.107717 C7.00321543,15.107717 6.35209003,14.818328 5.82154341,14.2154341 C5.26688103,13.6125402 5.00160772,12.840836 5.00160772,11.9244373 C5.00160772,10.9598071 5.36334405,10.1398714 6.11093248,9.48874598 C6.8585209,8.83762058 7.75080386,8.5 8.83601286,8.5 C9.53536977,8.5 10.1864952,8.64469453 10.7652733,8.95819936 C11.3681672,9.27170418 11.8987138,9.68167203 12.3569132,10.2363344 C12.8151125,10.766881 13.1768489,11.3938907 13.4421222,12.0932476 C13.7073955,12.7926045 13.8279743,13.5643087 13.8279743,14.3842444 C13.8279743,15.6623794 13.5868167,16.8440514 13.1286174,17.9292605 C12.6463023,19.0144695 12.0192926,19.9549839 11.1993569,20.7508039 C10.403537,21.5466238 9.46302251,22.1977492 8.3778135,22.6800643 C7.2926045,23.1623794 6.18327974,23.4276527 5.00160772,23.5 L5.00160772,22.1254019 L5.00160772,22.1254019 Z" id="Combined-Shape" fill="#B8C5CC" fill-rule="nonzero" transform="translate(15.009646, 16.000000) scale(-1, 1) translate(-15.009646, -16.000000) "></path>
                    </g>
                </g>
            </g>
        </g>
    </g>
</svg>