<?xml version="1.0" encoding="UTF-8"?>
<svg width="14px" height="13px" viewBox="0 0 14 13" version="1.1" xmlns="http://www.w3.org/2000/svg" xmlns:xlink="http://www.w3.org/1999/xlink">
    <!-- Generator: Sketch 46.2 (44496) - http://www.bohemiancoding.com/sketch -->
    <title>icon_price</title>
    <desc>Created with Sketch.</desc>
    <defs>
        <linearGradient x1="0%" y1="0%" x2="100%" y2="158.428486%" id="linearGradient-1">
            <stop stop-color="#40C8F7" offset="0%"></stop>
            <stop stop-color="#46ADF0" offset="100%"></stop>
        </linearGradient>
    </defs>
    <g id="Index" stroke="none" stroke-width="1" fill="none" fill-rule="evenodd">
        <g id="Airport_Dining_Scorecard_1440" transform="translate(-286.000000, -1167.000000)">
            <g id="Rankings-from-Best-to-Worst" transform="translate(153.000000, 1061.000000)">
                <g id="Explaining" transform="translate(2.000000, 72.000000)">
                    <g id="icon_price" transform="translate(130.000000, 32.000000)">
                        <rect id="baseline" x="0" y="0" width="16" height="16"></rect>
                        <path d="M15,6.66666667 C15,6.15121212 14.6755294,5.73333333 14.2752941,5.73333333 L10.1247059,5.73333333 C9.72447059,5.73333333 9.4,6.15121212 9.4,6.66666667 L9.4,9.46666667 C9.4,9.98212121 9.72447059,10.4 10.1247059,10.4 L14.2752941,10.4 C14.6755294,10.4 15,9.98212121 15,9.46666667 L15,6.66666667 Z M11.7333333,9.46666667 C10.9601289,9.46666667 10.3333333,8.83987107 10.3333333,8.06666667 C10.3333333,7.29346227 10.9601289,6.66666667 11.7333333,6.66666667 C12.5065377,6.66666667 13.1333333,7.29346227 13.1333333,8.06666667 C13.1333333,8.83976189 12.5065377,9.46666667 11.7333333,9.46666667 Z M8.47555339,4.81162109 L8.46666667,11.4219727 L14.0666667,11.4219727 L14.0666667,13.1333333 C14.0666667,13.6847333 13.6589867,14.1333333 13.1317945,14.1333333 L1.97732293,14.1333333 C1.45013073,14.1333333 1,13.6847333 1,13.1333333 L1,3 C1,2.4486 1.45013073,2 1.97732293,2 L13.1317945,2 C13.6590504,2 14.0666667,2.4486 14.0666667,3 L14.0666667,4.8 L8.47555339,4.81162109 Z" id="Combined-Shape" fill="url(#linearGradient-1)" fill-rule="nonzero"></path>
                    </g>
                </g>
            </g>
        </g>
    </g>
</svg>