<?xml version="1.0" encoding="UTF-8"?>
<svg width="14px" height="16px" viewBox="0 0 14 16" version="1.1" xmlns="http://www.w3.org/2000/svg" xmlns:xlink="http://www.w3.org/1999/xlink">
    <!-- Generator: Sketch 46.2 (44496) - http://www.bohemiancoding.com/sketch -->
    <title>icon_quality</title>
    <desc>Created with Sketch.</desc>
    <defs>
        <linearGradient x1="0%" y1="0%" x2="100%" y2="158.428486%" id="linearGradient-1">
            <stop stop-color="#40C8F7" offset="0%"></stop>
            <stop stop-color="#46ADF0" offset="100%"></stop>
        </linearGradient>
    </defs>
    <g id="Index" stroke="none" stroke-width="1" fill="none" fill-rule="evenodd">
        <g id="Airport_Dining_Scorecard_1440" transform="translate(-181.000000, -1165.000000)">
            <g id="Rankings-from-Best-to-Worst" transform="translate(153.000000, 1061.000000)">
                <g id="Explaining" transform="translate(2.000000, 72.000000)">
                    <g id="icon_quality" transform="translate(25.000000, 32.000000)">
                        <rect id="baseline" x="0" y="0" width="16" height="16"></rect>
                        <path d="M14.9541714,13.0848924 C15.1333118,13.5144447 14.7562778,13.9746289 14.3598911,13.8116843 L12.3845229,13.006138 L12.2363239,13.0835495 L11.5172219,15.2963478 C11.3727621,15.7416957 10.8176439,15.7704732 10.6382751,15.3392263 L9.23529412,11.9690287 C10.9078706,11.6431074 12.3527823,10.5682676 13.2781983,9.05882353 L14.9541714,13.0848924 Z M8,0 C10.9515032,0 13.3529412,2.40132131 13.3529412,5.35294118 C13.3529412,8.30456104 10.951474,10.7058824 8,10.7058824 C5.04855515,10.7058824 2.64705882,8.30456104 2.64705882,5.35294118 C2.64705882,2.40132131 5.04852598,0 8,0 Z M10.6045987,4.9596291 C10.8930781,4.67835438 10.7329997,4.18738517 10.3350206,4.12957261 L9.0230956,3.93901285 L8.43633605,2.75029682 C8.2585814,2.38898291 7.74136027,2.38930377 7.56380979,2.75029682 L6.97705025,3.93901285 L5.66512521,4.12957261 C5.26708779,4.18741434 5.10698025,4.67835438 5.39545967,4.95959993 L6.34464153,5.88489255 L6.12033347,7.19177139 C6.05213682,7.58855455 6.4701257,7.89185171 6.82653925,7.7047047 L8.00002917,7.08787213 L9.17351909,7.70473387 C9.52789082,7.89056829 9.94830071,7.59080055 9.87972486,7.19180055 L9.65541681,5.88492172 L10.6045987,4.9596291 Z M2.72187192,9.05882353 C3.64730039,10.5683066 5.09215848,11.6431195 6.76470588,11.9690103 L5.36174925,15.3392236 C5.18201255,15.7713678 4.62698953,15.7407356 4.48281769,15.2963129 L3.76372821,13.0834723 L3.61553178,13.0060605 L1.64022638,13.8116105 C1.24638695,13.9741403 0.865962834,13.5164799 1.04592787,13.0849112 L2.72187192,9.05882353 Z" id="Combined-Shape" fill="url(#linearGradient-1)" fill-rule="nonzero"></path>
                    </g>
                </g>
            </g>
        </g>
    </g>
</svg>