<?xml version="1.0" encoding="UTF-8"?>
<svg width="12px" height="13px" viewBox="0 0 12 13" version="1.1" xmlns="http://www.w3.org/2000/svg" xmlns:xlink="http://www.w3.org/1999/xlink">
    <!-- Generator: Sketch 46.2 (44496) - http://www.bohemiancoding.com/sketch -->
    <title>Group 7</title>
    <desc>Created with Sketch.</desc>
    <defs></defs>
    <g id="Index" stroke="none" stroke-width="1" fill="none" fill-rule="evenodd">
        <g id="Airport_Dining_Scorecard_1440" transform="translate(-900.000000, -7217.000000)" fill="#FFFFFF">
            <g id="Table" transform="translate(155.000000, 7002.000000)">
                <g transform="translate(0.000000, 98.000000)" id="Score">
                    <g transform="translate(739.000000, 60.000000)">
                        <g id="Rank" transform="translate(0.000000, 51.000000)">
                            <g id="Group-7" transform="translate(6.125911, 6.000000)">
                                <path d="M11.5910358,6.35184449 L9.56638692,8.46165323 L10.0448464,11.4415369 C10.1911219,12.351318 9.29436808,13.0348343 8.53847675,12.6111034 L6.03536836,11.2045642 L3.53225996,12.6110369 C2.77201334,13.0377607 1.88042369,12.3461967 2.0258903,11.4414704 L2.50434979,8.46158672 L0.479700877,6.35177798 C-0.135639086,5.71049509 0.205877704,4.59107668 1.05490997,4.45918869 L3.85330689,4.02468329 L5.1048922,1.31422885 C5.4836156,0.491109476 6.58687224,0.490377874 6.96603116,1.31422885 L8.21761647,4.02468329 L11.0160134,4.45918869 C11.8649212,4.59101017 12.2063758,5.71049509 11.5910358,6.35184449 Z" id="Shape"></path>
                            </g>
                        </g>
                    </g>
                </g>
            </g>
        </g>
    </g>
</svg>