<?xml version="1.0" encoding="UTF-8"?>
<svg width="13px" height="13px" viewBox="0 0 13 13" version="1.1" xmlns="http://www.w3.org/2000/svg" xmlns:xlink="http://www.w3.org/1999/xlink">
    <!-- Generator: Sketch 46.2 (44496) - http://www.bohemiancoding.com/sketch -->
    <title>Fill 1</title>
    <desc>Created with Sketch.</desc>
    <defs></defs>
    <g id="Index" stroke="none" stroke-width="1" fill="none" fill-rule="evenodd">
        <g id="Airport_Dining_Scorecard_1440" transform="translate(-878.000000, -1523.000000)" fill="#B8C5CC">
            <g id="Rankings-from-Best-to-Worst" transform="translate(153.000000, 1061.000000)">
                <g id="1-Tokyo" transform="translate(2.000000, 169.000000)">
                    <g id="Restaurant-Card" transform="translate(690.000000, 0.000000)">
                        <g id="Info" transform="translate(32.000000, 218.000000)">
                            <g id="Time" transform="translate(1.000000, 70.000000)">
                                <path d="M6.47095841,13.287973 C6.46199754,13.2884837 6.45224736,13.2888087 6.44184718,13.2888087 L3.48930874,13.2888087 C2.96781371,13.2888087 2.54354185,12.864444 2.54354185,12.3428561 C2.54354185,11.8212218 2.96790657,11.3969035 3.48949446,11.3969035 L5.5542099,11.3969035 L5.5542099,7.42588975 C5.5542099,6.90430186 5.97857462,6.47993714 6.5001625,6.47993714 C7.02175039,6.47993714 7.44611511,6.90430186 7.44611511,7.42588975 L7.44611511,12.3428561 C7.44611511,12.864444 7.02175039,13.2888087 6.5001625,13.2888087 C6.48976232,13.2888087 6.47991928,13.2884837 6.47095841,13.287973 M6.50011607,18 C10.0841408,18 13,15.0840944 13,11.4998839 C13,7.91585921 10.0841408,5 6.50011607,5 C2.91595207,5 0,7.91585921 0,11.4998839 C0,15.0840944 2.91595207,18 6.50011607,18" id="Fill-1"></path>
                            </g>
                        </g>
                    </g>
                </g>
            </g>
        </g>
    </g>
</svg>