<?xml version="1.0" encoding="UTF-8"?>
<svg width="14px" height="11px" viewBox="0 0 14 11" version="1.1" xmlns="http://www.w3.org/2000/svg" xmlns:xlink="http://www.w3.org/1999/xlink">
    <!-- Generator: Sketch 46.2 (44496) - http://www.bohemiancoding.com/sketch -->
    <title>Combined Shape</title>
    <desc>Created with Sketch.</desc>
    <defs></defs>
    <g id="Index" stroke="none" stroke-width="1" fill="none" fill-rule="evenodd">
        <g id="Airport_Dining_Scorecard_1440" transform="translate(-877.000000, -1454.000000)" fill-rule="nonzero" fill="#B8C5CC">
            <g id="Rankings-from-Best-to-Worst" transform="translate(153.000000, 1061.000000)">
                <g id="1-Tokyo" transform="translate(2.000000, 169.000000)">
                    <g id="Restaurant-Card" transform="translate(690.000000, 0.000000)">
                        <g id="Info" transform="translate(32.000000, 218.000000)">
                            <g id="Cousine">
                                <path d="M0,14.5671736 L14,14.5671736 L14,16.0556795 L0,16.0556795 L0,14.5671736 Z M11.5126035,9.36559232 C12.6842786,10.5372401 13.3438346,12.0843981 13.3798462,13.7355987 L0.62009914,13.7355987 C0.656110718,12.0844255 1.31566674,10.5372401 2.48734185,9.36559232 C3.47802938,8.37487744 4.73717681,7.75040332 6.10069492,7.55924391 C6.01185542,7.40617419 5.96069547,7.22863192 5.96069547,7.03927719 C5.96069547,6.46620912 6.42690458,6 6.99997266,6 C7.57304073,6 8.03924985,6.46623646 8.03924985,7.03927719 C8.03924985,7.22863192 7.98811723,7.40617419 7.89925039,7.55924391 C9.26274116,7.75040332 10.5218886,8.37487744 11.5126035,9.36559232 Z" id="Combined-Shape"></path>
                            </g>
                        </g>
                    </g>
                </g>
            </g>
        </g>
    </g>
</svg>