<?xml version="1.0" encoding="UTF-8"?>
<svg width="11px" height="16px" viewBox="0 0 11 16" version="1.1" xmlns="http://www.w3.org/2000/svg" xmlns:xlink="http://www.w3.org/1999/xlink">
    <!-- Generator: Sketch 46.2 (44496) - http://www.bohemiancoding.com/sketch -->
    <title>Shape Copy</title>
    <desc>Created with Sketch.</desc>
    <defs></defs>
    <g id="Index" stroke="none" stroke-width="1" fill="none" fill-rule="evenodd">
        <g id="Airport_Dining_Scorecard_1440" transform="translate(-879.000000, -1475.000000)" fill-rule="nonzero" fill="#B8C5CC">
            <g id="Rankings-from-Best-to-Worst" transform="translate(153.000000, 1061.000000)">
                <g id="1-Tokyo" transform="translate(2.000000, 169.000000)">
                    <g id="Restaurant-Card" transform="translate(690.000000, 0.000000)">
                        <g id="Info" transform="translate(32.000000, 218.000000)">
                            <g id="Address" transform="translate(2.000000, 24.000000)">
                                <path d="M5.40391212,3.0007214 C2.35486745,3.04996636 -0.0530161181,5.64572687 0.000887618141,8.48273434 C0.118045739,11.8491696 4.83168912,16.9480674 5.53610461,19 C6.42423284,16.7254873 10.9394958,11.8863255 11,8.30299913 C10.9460963,5.46652499 8.45277344,2.95112088 5.40391212,3.0007214 Z M5.4998021,10.8228477 C4.08272054,10.8228477 2.93387425,9.70905829 2.93387425,8.33482168 C2.93387425,6.96076286 4.08290389,5.84644008 5.4998021,5.84644008 C6.91688365,5.84644008 8.06609664,6.96076286 8.06609664,8.33482168 C8.06609664,9.70905829 6.917067,10.8228477 5.4998021,10.8228477 Z" id="Shape-Copy"></path>
                            </g>
                        </g>
                    </g>
                </g>
            </g>
        </g>
    </g>
</svg>