<?xml version="1.0" encoding="UTF-8"?>
<svg width="15px" height="8px" viewBox="0 0 15 8" version="1.1" xmlns="http://www.w3.org/2000/svg" xmlns:xlink="http://www.w3.org/1999/xlink">
    <!-- Generator: Sketch 46.2 (44496) - http://www.bohemiancoding.com/sketch -->
    <title>airplane_icon</title>
    <desc>Created with Sketch.</desc>
    <defs></defs>
    <g id="Index" stroke="none" stroke-width="1" fill="none" fill-rule="evenodd">
        <g id="Airport_Dining_Scorecard_1440" transform="translate(-155.000000, -1273.000000)" fill="#B8C5CC">
            <g id="Rankings-from-Best-to-Worst" transform="translate(153.000000, 1061.000000)">
                <g id="1-Tokyo" transform="translate(2.000000, 169.000000)">
                    <g id="Airport/Ranking/Titile">
                        <g id="Titile">
                            <g id="Airport" transform="translate(0.000000, 40.000000)">
                                <g id="airplane_icon">
                                    <path d="M14.6230456,3.497 C13.8030456,2.936 12.9320456,2.867 12.0780456,3.282 L9.24404556,4.614 L9.16004556,4.664 L7.40604556,3.747 C6.67304556,3.259 5.83504556,3 4.96804556,3 L4.96704556,3 L3.48704556,3.042 C3.27404556,3.048 3.08904556,3.188 3.02504556,3.391 C2.96104556,3.594 3.03104556,3.815 3.20204556,3.942 L6.31504556,6.276 L3.86504556,7.549 C3.56204556,7.52 2.68604556,7.306 2.25004556,7.199 C1.68604556,7.062 1.59904556,7.042 1.50004556,7.042 L0.500045556,7.042 C0.289045556,7.042 0.100045556,7.175 0.0290455558,7.374 C-0.0419544442,7.573 0.0200455558,7.795 0.184045556,7.929 C0.631045556,8.294 2.92504556,10.115 4.18904556,10.115 C4.40404556,10.115 4.59404556,10.067 4.72704556,9.988 L14.6340456,4.951 C14.8650456,4.789 15.0020456,4.517 15.0000456,4.223 C14.9990456,3.93 14.8580456,3.659 14.6230456,3.497 Z"></path>
                                </g>
                            </g>
                        </g>
                    </g>
                </g>
            </g>
        </g>
    </g>
</svg>