<?xml version="1.0" encoding="UTF-8"?>
<svg width="54px" height="26px" viewBox="0 0 54 26" version="1.1" xmlns="http://www.w3.org/2000/svg" xmlns:xlink="http://www.w3.org/1999/xlink">
    <!-- Generator: Sketch 46.2 (44496) - http://www.bohemiancoding.com/sketch -->
    <title>Price</title>
    <desc>Created with Sketch.</desc>
    <defs>
        <linearGradient x1="0%" y1="0%" x2="100%" y2="158.428486%" id="linearGradient-1">
            <stop stop-color="#40C8F7" offset="0%"></stop>
            <stop stop-color="#46ADF0" offset="100%"></stop>
        </linearGradient>
    </defs>
    <g id="Index" stroke="none" stroke-width="1" fill="none" fill-rule="evenodd">
        <g id="Airport_Dining_Scorecard_1440" transform="translate(-1199.000000, -3712.000000)">
            <g id="Rankings-from-Best-to-Worst" transform="translate(153.000000, 1061.000000)">
                <g id="7-Sydney" transform="translate(0.000000, 2471.000000)">
                    <g id="Restaurant-Card" transform="translate(698.000000, 0.000000)">
                        <g id="Price" transform="translate(348.000000, 180.000000)">
                            <rect id="Rectangle-7" stroke-opacity="0.4" stroke="#159DCC" x="0.5" y="0.5" width="53" height="25" rx="3"></rect>
                            <g id="Group" transform="translate(8.000000, 7.000000)">
                                <path d="M3.752,12.4 L3.752,11.14 C2.296,11.028 1.218,10.482 0.49,9.684 L1.4,8.424 C1.932,8.998 2.73,9.516 3.752,9.67 L3.752,6.968 C2.31,6.604 0.784,6.086 0.784,4.252 C0.784,2.824 1.946,1.704 3.752,1.55 L3.752,0.248 L4.872,0.248 L4.872,1.564 C6.006,1.69 6.958,2.124 7.686,2.824 L6.748,4.042 C6.216,3.524 5.558,3.202 4.872,3.062 L4.872,5.47 C6.328,5.862 7.896,6.408 7.896,8.284 C7.896,9.712 6.972,10.958 4.872,11.14 L4.872,12.4 L3.752,12.4 Z M6.23,8.438 C6.23,7.808 5.642,7.5 4.872,7.262 L4.872,9.684 C5.838,9.53 6.23,8.97 6.23,8.438 Z M2.464,4.14 C2.464,4.686 3.01,4.966 3.752,5.176 L3.752,2.992 C2.954,3.076 2.464,3.524 2.464,4.14 Z" id="$" fill="url(#linearGradient-1)"></path>
                                <path d="M13.262,12.4 L13.262,11.14 C11.806,11.028 10.728,10.482 10,9.684 L10.91,8.424 C11.442,8.998 12.24,9.516 13.262,9.67 L13.262,6.968 C11.82,6.604 10.294,6.086 10.294,4.252 C10.294,2.824 11.456,1.704 13.262,1.55 L13.262,0.248 L14.382,0.248 L14.382,1.564 C15.516,1.69 16.468,2.124 17.196,2.824 L16.258,4.042 C15.726,3.524 15.068,3.202 14.382,3.062 L14.382,5.47 C15.838,5.862 17.406,6.408 17.406,8.284 C17.406,9.712 16.482,10.958 14.382,11.14 L14.382,12.4 L13.262,12.4 Z M15.74,8.438 C15.74,7.808 15.152,7.5 14.382,7.262 L14.382,9.684 C15.348,9.53 15.74,8.97 15.74,8.438 Z M11.974,4.14 C11.974,4.686 12.52,4.966 13.262,5.176 L13.262,2.992 C12.464,3.076 11.974,3.524 11.974,4.14 Z" id="$" fill="url(#linearGradient-1)"></path>
                                <path d="M23.262,12.4 L23.262,11.14 C21.806,11.028 20.728,10.482 20,9.684 L20.91,8.424 C21.442,8.998 22.24,9.516 23.262,9.67 L23.262,6.968 C21.82,6.604 20.294,6.086 20.294,4.252 C20.294,2.824 21.456,1.704 23.262,1.55 L23.262,0.248 L24.382,0.248 L24.382,1.564 C25.516,1.69 26.468,2.124 27.196,2.824 L26.258,4.042 C25.726,3.524 25.068,3.202 24.382,3.062 L24.382,5.47 C25.838,5.862 27.406,6.408 27.406,8.284 C27.406,9.712 26.482,10.958 24.382,11.14 L24.382,12.4 L23.262,12.4 Z M25.74,8.438 C25.74,7.808 25.152,7.5 24.382,7.262 L24.382,9.684 C25.348,9.53 25.74,8.97 25.74,8.438 Z M21.974,4.14 C21.974,4.686 22.52,4.966 23.262,5.176 L23.262,2.992 C22.464,3.076 21.974,3.524 21.974,4.14 Z" id="$" fill="#E7EEF2"></path>
                                <path d="M33.262,12.4 L33.262,11.14 C31.806,11.028 30.728,10.482 30,9.684 L30.91,8.424 C31.442,8.998 32.24,9.516 33.262,9.67 L33.262,6.968 C31.82,6.604 30.294,6.086 30.294,4.252 C30.294,2.824 31.456,1.704 33.262,1.55 L33.262,0.248 L34.382,0.248 L34.382,1.564 C35.516,1.69 36.468,2.124 37.196,2.824 L36.258,4.042 C35.726,3.524 35.068,3.202 34.382,3.062 L34.382,5.47 C35.838,5.862 37.406,6.408 37.406,8.284 C37.406,9.712 36.482,10.958 34.382,11.14 L34.382,12.4 L33.262,12.4 Z M35.74,8.438 C35.74,7.808 35.152,7.5 34.382,7.262 L34.382,9.684 C35.348,9.53 35.74,8.97 35.74,8.438 Z M31.974,4.14 C31.974,4.686 32.52,4.966 33.262,5.176 L33.262,2.992 C32.464,3.076 31.974,3.524 31.974,4.14 Z" id="$" fill="#CFDEE6" opacity="0.5"></path>
                            </g>
                        </g>
                    </g>
                </g>
            </g>
        </g>
    </g>
</svg>