<?xml version="1.0" encoding="UTF-8"?>
<svg width="71px" height="32px" viewBox="0 0 71 32" version="1.1" xmlns="http://www.w3.org/2000/svg" xmlns:xlink="http://www.w3.org/1999/xlink">
    <!-- Generator: Sketch 46.2 (44496) - http://www.bohemiancoding.com/sketch -->
    <title>Top&amp;Rank</title>
    <desc>Created with Sketch.</desc>
    <defs>
        <linearGradient x1="0%" y1="50%" x2="100%" y2="50%" id="linearGradient-1">
            <stop stop-color="#6BDA24" offset="0%"></stop>
            <stop stop-color="#37B20E" offset="100%"></stop>
        </linearGradient>
    </defs>
    <g id="Index" stroke="none" stroke-width="1" fill="none" fill-rule="evenodd">
        <g id="Airport_Dining_Scorecard_1440" transform="translate(-155.000000, -2004.000000)">
            <g id="Rankings-from-Best-to-Worst" transform="translate(153.000000, 1061.000000)">
                <g id="3-Hong-Kong" transform="translate(2.000000, 943.000000)">
                    <g id="Airport/Ranking/Titile">
                        <g id="Titile">
                            <g id="Top&amp;Rank">
                                <g id="Rank-2">
                                    <path d="M25.3294496,3 L68.0034676,3 C69.6584067,3 71,4.34312337 71,6.00793008 L71,25.9920699 C71,27.6533038 69.6626208,29 68.0034676,29 L25.3294496,29 C22.7031739,30.8880809 19.4814383,32 16,32 C7.163444,32 0,24.836556 0,16 C0,7.163444 7.163444,0 16,0 C19.4814383,0 22.7031739,1.11191914 25.3294496,3 Z" id="Combined-Shape" fill="url(#linearGradient-1)"></path>
                                    <circle id="Path" stroke="#FFFFFF" cx="16" cy="16" r="12"></circle>
                                    <text id="5.0" font-family="WhitneyHTF-SemiBold, Whitney HTF" font-size="14" font-weight="500" fill="#FFFFFF">
                                        <tspan x="36" y="21">4.03</tspan>
                                    </text>
                                    <text id="1" font-family="WhitneyHTF-Bold, Whitney HTF" font-size="16" font-weight="bold" fill="#FFFFFF">
                                        <tspan x="11.64" y="21">3</tspan>
                                    </text>
                                </g>
                            </g>
                        </g>
                    </g>
                </g>
            </g>
        </g>
    </g>
</svg>