<svg width="32" height="416" viewBox="0 0 32 416" xmlns="http://www.w3.org/2000/svg"><title>Left Side</title><g fill="none" fill-rule="evenodd"><path fill="#B8C5CC" d="M14 0h2v416h-2z"/><path fill="#FFF" d="M0 192h32v32H0z"/><path d="M13.828 214.125a11.115 11.115 0 0 1-2.412-1.012 10.519 10.519 0 0 1-1.953-1.52 6.719 6.719 0 0 1-1.302-1.833c-.314-.675-.483-1.35-.483-2.025 0-.41.073-.772.242-1.085.168-.314.361-.459.603-.459.24 0 .434.049.602.145.17.096.338.193.507.314.169.12.362.217.579.313.217.096.506.145.868.145.747 0 1.398-.29 1.929-.893.555-.602.82-1.374.82-2.29 0-.965-.362-1.785-1.11-2.436-.747-.651-1.64-.989-2.724-.989-.7 0-1.35.145-1.93.458a5.036 5.036 0 0 0-1.591 1.278 6.17 6.17 0 0 0-1.086 1.857c-.265.7-.385 1.471-.385 2.291 0 1.278.24 2.46.699 3.545.482 1.085 1.11 2.026 1.93 2.822a9.303 9.303 0 0 0 2.82 1.93 9.633 9.633 0 0 0 3.377.819v-1.375zm11.19 0a11.115 11.115 0 0 1-2.412-1.012 10.519 10.519 0 0 1-1.953-1.52 6.719 6.719 0 0 1-1.303-1.833c-.313-.675-.482-1.35-.482-2.025 0-.41.073-.772.241-1.085.17-.314.362-.459.603-.459s.434.049.603.145c.169.096.338.193.507.314.168.12.361.217.578.313.217.096.507.145.868.145.748 0 1.4-.29 1.93-.893.554-.602.82-1.374.82-2.29 0-.965-.362-1.785-1.11-2.436-.747-.651-1.64-.989-2.725-.989-.7 0-1.35.145-1.929.458a5.036 5.036 0 0 0-1.592 1.278 6.17 6.17 0 0 0-1.085 1.857c-.265.7-.386 1.471-.386 2.291 0 1.278.241 2.46.7 3.545.482 1.085 1.109 2.026 1.929 2.822a9.303 9.303 0 0 0 2.821 1.93 9.633 9.633 0 0 0 3.377.819v-1.375z" fill="#B8C5CC" fill-rule="nonzero"/></g></svg>